<svg xmlns="http://www.w3.org/2000/svg" viewBox="0 0 420 100" width="420" height="100">
  <defs>
    <linearGradient id="ihfc-grad" x1="0%" y1="0%" x2="100%" y2="100%">
      <stop offset="0%" stop-color="#0f2b48" />
      <stop offset="100%" stop-color="#1b5299" />
    </linearGradient>
    <linearGradient id="accent-grad" x1="0%" y1="0%" x2="100%" y2="100%">
      <stop offset="0%" stop-color="#d97706" />
      <stop offset="100%" stop-color="#f59e0b" />
    </linearGradient>
  </defs>
  <!-- Emblem: IIT Delhi Gear & Cobotics Hexagon -->
  <g transform="translate(10, 10)">
    <polygon points="40,2 75,22 75,62 40,82 5,62 5,22" fill="url(#ihfc-grad)" />
    <!-- Gear teeth -->
    <circle cx="40" cy="42" r="24" fill="none" stroke="#ffffff" stroke-width="4" stroke-dasharray="10,6" />
    <circle cx="40" cy="42" r="14" fill="url(#accent-grad)" />
    <!-- Connecting IoT node dots -->
    <circle cx="40" cy="18" r="3.5" fill="#ffffff" />
    <circle cx="60" cy="30" r="3.5" fill="#ffffff" />
    <circle cx="60" cy="54" r="3.5" fill="#ffffff" />
    <circle cx="40" cy="66" r="3.5" fill="#ffffff" />
    <circle cx="20" cy="54" r="3.5" fill="#ffffff" />
    <circle cx="20" cy="30" r="3.5" fill="#ffffff" />
    <line x1="40" y1="18" x2="40" y2="35" stroke="#ffffff" stroke-width="2" />
    <line x1="60" y1="54" x2="48" y2="46" stroke="#ffffff" stroke-width="2" />
    <line x1="20" y1="54" x2="32" y2="46" stroke="#ffffff" stroke-width="2" />
  </g>
  <!-- Text Branding -->
  <text x="100" y="38" font-family="'Plus Jakarta Sans', Inter, sans-serif" font-weight="800" font-size="28" fill="#0f2942" letter-spacing="0.5">IHFC</text>
  <text x="180" y="38" font-family="'Plus Jakarta Sans', Inter, sans-serif" font-weight="600" font-size="13" fill="#d97706" letter-spacing="1.5">IIT DELHI</text>
  <text x="100" y="58" font-family="Inter, sans-serif" font-weight="600" font-size="12" fill="#2d6a4f" letter-spacing="0.2">Technology Innovation Hub</text>
  <text x="100" y="74" font-family="Inter, sans-serif" font-weight="400" font-size="10.5" fill="#64748b" letter-spacing="0.1">TIH Foundation for IoT &amp; IoE @ IIT Delhi</text>
</svg>